<svg width="238" height="242" viewBox="0 0 238 242" xmlns="http://www.w3.org/2000/svg"><title>Confetti Pattern</title><g fill="none" fill-rule="evenodd"><path d="M18.134 97.396l-15.577 5.388a2 2 0 0 0-.619 3.397l12.977 10.889a2 2 0 0 0 3.238-1.199l2.6-16.276a2 2 0 0 0-2.62-2.199z" stroke="#FEFEFE" stroke-width="2" stroke-linecap="round" stroke-linejoin="round"/><rect width="18" height="18" rx="2" transform="rotate(30 -183.574 397.188)" stroke="#FEFEFE" stroke-width="2" stroke-linecap="round" stroke-linejoin="round"/><circle cx="10" cy="10" r="10" transform="translate(81 70)" stroke="#FEFEFE" stroke-width="2" stroke-linecap="round" stroke-linejoin="round"/><g transform="rotate(-10 157.569 -775.166)" stroke="#FEFEFE" stroke-width="2" stroke-linecap="round" stroke-linejoin="round"><rect width="20.645" height="14.452" rx="2"/><path d="M6.194 18.58h8.258m-4.129-4.128v4.129"/></g><g transform="rotate(12 4.08 38.81)"><rect stroke="#FEFEFE" stroke-width="2" stroke-linecap="round" stroke-linejoin="round" width="21.333" height="8" rx="2"/><rect stroke="#FEFEFE" stroke-width="2" stroke-linecap="round" stroke-linejoin="round" y="12" width="21.333" height="8" rx="2"/><circle fill="#FEFEFE" cx="4" cy="4" r="1.333"/><circle fill="#FEFEFE" cx="4" cy="16" r="1.333"/></g><path d="M63.893 193.666l-4.236-6.523 6.523-4.236 4.236 6.523zm-6.657-10.25L53 176.893l6.523-4.236 4.236 6.523zm10.25-6.656l-4.236-6.524L69.773 166l4.237 6.523zm6.657 10.25l-4.236-6.524 6.523-4.236 4.236 6.523z" stroke="#FEFEFE" stroke-width="2" stroke-linecap="round" stroke-linejoin="round"/></g></svg>